<svg width="150" height="50" viewBox="0 0 100 29" fill="current" xmlns="http://www.w3.org/2000/svg">
<path d="M38.0246 26.1757L35.4103 26.4744C35.1376 26.5047 34.8931 26.3099 34.8628 26.0394L34.2092 20.339C34.1789 20.0663 34.3737 19.8195 34.6464 19.7871L37.0962 19.5057C37.4014 19.4711 37.6762 19.6897 37.713 19.9948L38.3709 25.7407C38.3947 25.9572 38.2411 26.1519 38.0246 26.1757ZM63.3845 21.434L52.094 26.996C52.0831 27.0003 52.0702 27.009 52.0615 27.0133C52.0507 27.0176 52.042 27.0241 52.0312 27.0306C50.4773 27.972 48.8672 27.6993 48.2287 27.5305C45.8005 26.7557 44.4869 26.1866 43.5281 25.771C42.2708 25.2257 41.6258 24.9465 40.1152 24.9616H40.1131C39.9529 24.9638 39.8187 24.8448 39.7993 24.6868L39.7928 24.6392L39.1587 19.101C39.1349 18.8998 39.1738 18.6985 39.269 18.521C39.9053 17.3372 41.0956 16.1469 42.4958 15.9868C45.095 15.6903 46.3914 17.2528 46.4411 17.3178C46.5515 17.4584 46.7095 17.558 46.8848 17.5948L53.1999 18.9625C54.2646 19.2287 54.8814 20.0684 54.652 20.9774C54.5893 21.2219 54.4659 21.4513 54.2906 21.6331C53.9378 22.001 53.4509 22.1612 52.9661 22.0854L45.8936 20.7047C45.53 20.6333 45.1491 20.8107 45.0084 21.1548C44.8158 21.6223 45.1015 22.1201 45.5711 22.211L52.6848 23.6004C52.6913 23.6025 52.6999 23.6025 52.7064 23.6047C52.9899 23.6523 53.2734 23.6588 53.5505 23.6263C54.1975 23.5528 54.8122 23.2692 55.3099 22.7953C55.7774 22.3495 56.0869 21.7543 56.1951 21.1181C56.1951 21.1137 56.1972 21.1116 56.1972 21.1072C56.2189 20.9795 56.3076 20.8757 56.4288 20.8259L61.7852 18.6595C62.5816 18.2808 63.6593 18.0536 64.2718 19.1162C64.9254 20.3628 63.7048 21.2328 63.3845 21.434Z" fill="current"/>
<path d="M14.2879 1.63179C14.2706 1.46731 14.236 1.33962 14.1862 1.2444C14.1343 1.14917 14.0282 1.07776 13.8659 1.03231C13.7036 0.984697 13.4764 0.954399 13.182 0.941414C12.8877 0.928429 12.4895 0.921936 11.9852 0.921936C11.5502 0.921936 11.1996 0.928429 10.9291 0.941414C10.6608 0.954399 10.4465 0.984697 10.2907 1.03231C10.1327 1.07992 10.0115 1.14917 9.9271 1.24007C9.8427 1.33097 9.75613 1.45 9.67173 1.595L1.6383 16.4239C1.47599 16.7248 1.36778 16.9672 1.31151 17.1468C1.25524 17.3286 1.2639 17.4671 1.33748 17.5666C1.4089 17.6662 1.5539 17.7289 1.77248 17.7549C1.9889 17.7809 2.29404 17.7939 2.68793 17.7939C3.05367 17.7939 3.35882 17.7852 3.60337 17.7679C3.84576 17.7506 4.04054 17.7203 4.18554 17.677C4.33054 17.6337 4.44091 17.571 4.51882 17.4887C4.59457 17.4065 4.66382 17.3048 4.72442 17.1857L6.43845 13.9048H12.654L13.102 17.2637C13.1106 17.3848 13.1366 17.4801 13.1777 17.5472C13.221 17.6164 13.2967 17.6684 13.4071 17.703C13.5175 17.7376 13.6755 17.7614 13.8811 17.7744C14.0867 17.7874 14.3507 17.7939 14.6731 17.7939C15.1341 17.7939 15.4955 17.7831 15.7596 17.7614C16.0236 17.7398 16.214 17.6835 16.3287 17.5926C16.4434 17.5017 16.504 17.3675 16.5084 17.1857C16.5127 17.004 16.4932 16.7594 16.4499 16.4499L14.2879 1.63179ZM7.71315 11.2948L11.4096 4.18985H11.4226L12.3683 11.2948H7.71315Z" fill="current"/>
<path d="M29.9414 5.51433C29.9068 5.44941 29.8419 5.39747 29.7423 5.35851C29.6449 5.31956 29.5108 5.28926 29.3398 5.26762C29.1688 5.24597 28.9567 5.23515 28.7013 5.23515C28.1819 5.23515 27.8032 5.27411 27.5695 5.35202C27.3358 5.42993 27.2016 5.55978 27.1669 5.73941L26.9613 6.7609C26.5523 6.19172 26.074 5.75888 25.5287 5.46239C24.9833 5.1659 24.3557 5.01657 23.648 5.01657C22.897 5.01657 22.2218 5.15075 21.6202 5.41694C21.0185 5.68314 20.4861 6.04239 20.0208 6.49471C19.5555 6.94702 19.1573 7.46642 18.824 8.05075C18.4908 8.63724 18.2159 9.24754 17.9995 9.88597C17.7831 10.5244 17.6229 11.165 17.519 11.8099C17.4173 12.4549 17.3654 13.0587 17.3654 13.6192C17.3654 14.2403 17.4281 14.816 17.5515 15.3505C17.6749 15.8851 17.8783 16.3504 18.1596 16.7464C18.441 17.1425 18.8046 17.4519 19.2525 17.677C19.7005 17.8999 20.2524 18.0125 20.9081 18.0125C21.3345 18.0125 21.7587 17.9454 22.1807 17.8134C22.6027 17.6792 22.9966 17.5017 23.3645 17.2766C23.7302 17.0537 24.057 16.8005 24.3427 16.5213C24.6284 16.2422 24.8469 15.9587 25.0006 15.6752C24.9075 15.9175 24.8037 16.227 24.6933 16.6058C24.5829 16.9845 24.4704 17.4541 24.36 18.0146C24.2908 18.3674 24.1782 18.6639 24.0202 18.9063C23.8622 19.1465 23.6566 19.3456 23.3991 19.5014C23.1437 19.6572 22.8429 19.7676 22.4966 19.8369C22.1504 19.9061 21.7608 19.9407 21.3258 19.9407C20.7891 19.9407 20.3368 19.904 19.9711 19.8304C19.6053 19.7568 19.298 19.6767 19.0491 19.5923C18.8024 19.5057 18.6033 19.4257 18.454 19.3543C18.3046 19.2807 18.1791 19.2439 18.0774 19.2439C17.9757 19.2439 17.8848 19.285 17.809 19.3672C17.7333 19.4495 17.6619 19.5534 17.5969 19.6767C17.532 19.8001 17.4801 19.9429 17.4368 20.1031C17.3935 20.2632 17.3589 20.4147 17.3286 20.5619C17.2983 20.709 17.2788 20.841 17.2702 20.9622C17.2615 21.0834 17.2572 21.17 17.2572 21.2198C17.2572 21.3756 17.2831 21.4946 17.3329 21.5812C17.3849 21.6678 17.4779 21.7457 17.6143 21.8128C17.9973 21.9946 18.4778 22.1417 19.0534 22.2586C19.6291 22.3755 20.2784 22.4339 21.0034 22.4339C22.0097 22.4339 22.8905 22.3343 23.6437 22.1374C24.399 21.9383 25.0396 21.644 25.5676 21.2522C26.0957 20.8605 26.522 20.3736 26.8466 19.7914C27.1713 19.2093 27.4093 18.5275 27.563 17.7441L29.9544 5.74157C29.9847 5.655 29.976 5.57926 29.9414 5.51433ZM25.7343 10.9334C25.6152 11.5286 25.4248 12.0869 25.1651 12.6128C24.9054 13.1387 24.6046 13.5975 24.2626 13.9893C23.9207 14.381 23.5549 14.6905 23.1632 14.9199C22.7715 15.1471 22.3863 15.2618 22.0119 15.2618C21.7738 15.2618 21.5704 15.2163 21.4037 15.1255C21.2371 15.0346 21.1008 14.9047 20.9947 14.7381C20.8887 14.5693 20.8086 14.3658 20.7588 14.1234C20.7069 13.8832 20.6831 13.6149 20.6831 13.3227C20.6831 12.9526 20.7112 12.5609 20.7653 12.1475C20.8216 11.7342 20.906 11.3208 21.0207 10.9075C21.1354 10.4941 21.2804 10.0981 21.4557 9.71933C21.631 9.3406 21.8344 9.00732 22.0703 8.71732C22.304 8.42948 22.5681 8.19791 22.8624 8.02694C23.1567 7.85381 23.4835 7.76941 23.8406 7.76941C24.3189 7.76941 24.7387 7.88844 25.1002 8.12433C25.4616 8.36239 25.7927 8.71732 26.0913 9.18911L25.7343 10.9334Z" fill="current"/>
<path d="M36.8863 17.6575C36.9772 17.6467 37.0702 17.6424 37.1611 17.6424C37.1893 17.6424 37.2174 17.6446 37.2455 17.6467C37.4143 17.5883 37.5766 17.5255 37.7368 17.4563C38.3947 16.3114 39.5049 15.1016 40.9398 14.4978C41.1281 14.1646 41.2969 13.8183 41.4397 13.459C41.6864 12.8336 41.8682 12.1952 41.9829 11.5416C42.0976 10.888 42.1561 10.2496 42.1561 9.6306C42.1561 8.89045 42.0543 8.23254 41.8487 7.6612C41.6431 7.08769 41.3337 6.60725 40.916 6.21336C40.4983 5.82165 39.9767 5.52516 39.3491 5.32172C38.7215 5.12045 37.9792 5.01874 37.1178 5.01874C36.2392 5.01874 35.4514 5.13993 34.7524 5.38016C34.0534 5.62038 33.4322 5.94933 32.8912 6.36269C32.3502 6.77605 31.8849 7.26083 31.4975 7.81702C31.1101 8.37322 30.7919 8.95971 30.5452 9.58083C30.2985 10.2019 30.1167 10.8382 30.002 11.4918C29.8873 12.1454 29.8289 12.7838 29.8289 13.4028C29.8289 14.1429 29.9306 14.8008 30.1362 15.3722C30.3418 15.9457 30.6513 16.4283 31.069 16.82C31.4866 17.2117 32.0082 17.5082 32.6358 17.7116C33.0838 17.8566 33.5946 17.9497 34.1637 17.9908C34.2546 17.9692 34.3455 17.9519 34.4386 17.9411L36.8863 17.6575ZM33.6184 14.8419C33.4517 14.6472 33.3327 14.4091 33.2613 14.1256C33.1877 13.8421 33.1531 13.5175 33.1531 13.1561C33.1531 12.7687 33.1834 12.3618 33.2418 11.9355C33.3024 11.5091 33.3955 11.0893 33.5231 10.6759C33.6508 10.2625 33.8131 9.86866 34.0101 9.49426C34.207 9.11986 34.4386 8.7909 34.7069 8.50523C34.9753 8.22172 35.2805 7.99448 35.6224 7.82784C35.9643 7.65904 36.3474 7.5768 36.7737 7.5768C37.1481 7.5768 37.4663 7.62874 37.726 7.73262C37.9857 7.8365 38.1999 7.98366 38.3644 8.17844C38.5311 8.37322 38.6501 8.60911 38.7215 8.88829C38.7929 9.16747 38.8297 9.48993 38.8297 9.85135C38.8297 10.2387 38.7994 10.6434 38.741 11.0655C38.6804 11.4875 38.5873 11.9073 38.4596 12.325C38.332 12.7427 38.1696 13.1387 37.9727 13.5131C37.7758 13.8875 37.5442 14.2187 37.2758 14.5087C37.0075 14.7965 36.7023 15.0259 36.3604 15.1925C36.0184 15.3614 35.6354 15.4436 35.209 15.4436C34.8346 15.4436 34.5165 15.3916 34.2568 15.2878C33.9971 15.1839 33.7828 15.0346 33.6184 14.8419Z" fill="current"/>
<path d="M45.7746 14.6169L46.2723 12.0956C46.374 11.561 46.5428 11.0503 46.7766 10.5655C47.0103 10.0786 47.2765 9.65224 47.5752 9.2865C47.8738 8.92075 48.1876 8.62642 48.5144 8.40135C48.8434 8.17844 49.1507 8.0659 49.4407 8.0659C49.5857 8.0659 49.7134 8.08105 49.8237 8.11135C49.9341 8.14164 50.0358 8.17194 50.1311 8.20224C50.2241 8.23254 50.3107 8.26284 50.3864 8.29314C50.4622 8.32344 50.5401 8.33858 50.6158 8.33858C50.7089 8.33858 50.7976 8.27799 50.8777 8.15679C50.9578 8.0356 51.0314 7.88194 51.0941 7.69149C51.159 7.50105 51.2153 7.29761 51.2673 7.07687C51.3192 6.85612 51.3603 6.64403 51.3949 6.43627C51.4296 6.22851 51.4555 6.04888 51.4707 5.89306C51.488 5.73724 51.4967 5.6312 51.4967 5.5706C51.4967 5.45806 51.4707 5.37582 51.4209 5.32605C51.369 5.28276 51.2997 5.24164 51.2088 5.20269C51.1201 5.16373 51.0162 5.13127 50.9015 5.1053C50.7868 5.07933 50.6634 5.05769 50.5314 5.04037C50.3994 5.02306 50.2696 5.0144 50.1419 5.0144C49.8259 5.0144 49.5056 5.07933 49.1831 5.20918C48.8585 5.33903 48.5447 5.51649 48.2439 5.7459C47.9409 5.97314 47.6552 6.24366 47.3869 6.55314C47.1185 6.86261 46.8826 7.20455 46.677 7.57463L47.0341 5.7394C47.0514 5.65284 47.0449 5.57709 47.0146 5.51433C46.9843 5.4494 46.9237 5.39746 46.8285 5.35851C46.7355 5.31955 46.6056 5.28926 46.439 5.26761C46.2723 5.24597 46.0581 5.23515 45.794 5.23515C45.5387 5.23515 45.3179 5.24597 45.1361 5.26761C44.9522 5.28926 44.8028 5.31955 44.6881 5.35851C44.5734 5.39746 44.4847 5.4494 44.4263 5.51433C44.3657 5.57926 44.3289 5.655 44.3116 5.7394L42.6603 14.104C42.8226 14.0931 42.9828 14.0866 43.1408 14.0866C44.1947 14.0866 45.0712 14.3139 45.7746 14.6169Z" fill="current"/>
<path d="M53.6543 17.1555C54.2018 17.2918 54.6974 17.5255 55.1173 17.8328C55.1887 17.8112 55.2623 17.7917 55.3337 17.7679C55.799 17.6034 56.2232 17.3978 56.6063 17.1468C56.9893 16.8979 57.3226 16.6187 57.6039 16.3136C57.8853 16.0084 58.0909 15.7163 58.2186 15.4414L57.8615 17.2896C57.8442 17.3849 57.8507 17.4649 57.881 17.5277C57.9113 17.5926 57.9762 17.6446 58.0801 17.6835C58.1818 17.7225 58.316 17.7506 58.4826 17.7679C58.6103 17.7809 58.7683 17.7896 58.9544 17.7917L60.703 17.084L62.9516 5.73941C62.9689 5.65284 62.9603 5.57709 62.9257 5.51433C62.891 5.44941 62.8261 5.39747 62.7265 5.35851C62.6292 5.31956 62.495 5.28926 62.324 5.26762C62.153 5.24597 61.941 5.23515 61.6856 5.23515C61.1662 5.23515 60.7874 5.27411 60.5537 5.35202C60.32 5.42993 60.1858 5.55978 60.1512 5.73941L59.9456 6.7609C59.5365 6.19172 59.0583 5.75888 58.5129 5.46239C57.9675 5.1659 57.3399 5.01657 56.6322 5.01657C55.8726 5.01657 55.193 5.15291 54.5914 5.42344C53.9898 5.69396 53.4574 6.05971 52.9921 6.51418C52.5268 6.97082 52.1286 7.49456 51.7953 8.08321C51.462 8.67403 51.1893 9.2865 50.9772 9.92493C50.763 10.5612 50.6071 11.2018 50.5033 11.8424C50.4016 12.4852 50.3496 13.076 50.3496 13.6192C50.3496 14.197 50.408 14.7467 50.5227 15.2726C50.631 15.7639 50.8084 16.201 51.0551 16.5906L53.5959 17.1403C53.6154 17.1446 53.6348 17.1511 53.6543 17.1555ZM53.7474 12.154C53.8036 11.7363 53.888 11.323 54.0027 10.914C54.1174 10.5049 54.2624 10.111 54.4377 9.73232C54.613 9.35359 54.8143 9.0203 55.0459 8.7303C55.2753 8.44247 55.5393 8.2109 55.838 8.03993C56.1366 7.8668 56.4656 7.78239 56.8227 7.78239C57.301 7.78239 57.7208 7.90142 58.0822 8.13732C58.4436 8.37321 58.7748 8.7303 59.0734 9.20209L58.7163 10.9464C58.5973 11.5416 58.4068 12.0978 58.1471 12.6193C57.8874 13.1409 57.5866 13.5975 57.2447 13.9893C56.9027 14.381 56.537 14.6905 56.1453 14.9199C55.7536 15.1471 55.3683 15.2618 54.9939 15.2618C54.7299 15.2618 54.5113 15.2077 54.3425 15.0995C54.1716 14.9913 54.0352 14.8484 53.9335 14.6666C53.8318 14.4849 53.7604 14.2793 53.7214 14.0455C53.6824 13.814 53.663 13.5672 53.663 13.3097C53.6651 12.9569 53.6933 12.5717 53.7474 12.154Z" fill="current"/>
<path d="M65.4448 17.5688C65.4902 17.5428 65.5292 17.5147 65.5595 17.4844C65.6288 17.4151 65.6742 17.3372 65.7002 17.2528L68.36 3.77865H72.5173C72.6191 3.77865 72.7165 3.73104 72.8052 3.63582C72.8939 3.54059 72.9718 3.42156 73.0346 3.2744C73.0995 3.12724 73.1536 2.96709 73.2012 2.78962C73.2488 2.61216 73.2856 2.44335 73.3159 2.27888C73.3462 2.1144 73.3679 1.96724 73.3809 1.83306C73.3938 1.69888 73.4003 1.60365 73.4003 1.54306C73.4003 1.36992 73.3722 1.23791 73.3181 1.14268C73.2618 1.04746 73.1839 0.999847 73.0822 0.999847H61.4173C61.3155 0.999847 61.2203 1.0453 61.1359 1.13619C61.0515 1.22709 60.9736 1.34612 60.9065 1.49112C60.8373 1.63828 60.781 1.79843 60.7334 1.97589C60.6858 2.15335 60.649 2.32432 60.6187 2.49313C60.5884 2.66194 60.5667 2.81126 60.5537 2.94544C60.5408 3.07962 60.5343 3.17918 60.5343 3.24843C60.5343 3.41291 60.5581 3.54059 60.6035 3.63582C60.6511 3.73104 60.7377 3.77865 60.8654 3.77865H64.9838L62.4691 16.517C62.6443 16.4932 62.8196 16.4802 62.9885 16.4802C63.9537 16.4759 64.8172 16.8676 65.4448 17.5688Z" fill="current"/>
<path d="M79.7457 8.28448C79.7457 7.87112 79.6591 7.46859 79.4838 7.07687C79.3085 6.68515 79.0423 6.33672 78.6852 6.02941C78.3281 5.72426 77.8693 5.47754 77.311 5.29359C76.7526 5.10747 76.086 5.01657 75.3091 5.01657C74.4131 5.01657 73.6167 5.15075 72.9177 5.41694C72.2187 5.68314 71.6019 6.04023 71.0695 6.48172C70.5371 6.92538 70.0826 7.44045 69.7082 8.02478C69.3338 8.61127 69.0265 9.22373 68.7863 9.8665C68.5482 10.5093 68.3751 11.1585 68.269 11.8164C68.163 12.4743 68.1089 13.0933 68.1089 13.6711C68.1089 14.4199 68.2106 15.0692 68.4162 15.6146C68.6218 16.1621 68.927 16.6122 69.3381 16.965C69.7472 17.3178 70.2558 17.5818 70.8661 17.7528C71.4764 17.9259 72.1905 18.0103 73.0086 18.0103C73.502 18.0103 73.989 17.9822 74.4672 17.9259C74.9455 17.8696 75.3762 17.7982 75.7593 17.7138C76.1423 17.6272 76.4713 17.532 76.744 17.4303C77.0166 17.3264 77.2049 17.2247 77.3066 17.1208C77.3997 17.0343 77.4841 16.9109 77.5555 16.7464C77.6269 16.5819 77.6875 16.4088 77.7352 16.2227C77.7828 16.0366 77.8174 15.8505 77.8434 15.66C77.8693 15.4696 77.8823 15.3029 77.8823 15.1557C77.8823 15.0259 77.8607 14.9328 77.8174 14.8722C77.7741 14.8116 77.7027 14.7813 77.601 14.7813C77.4993 14.7813 77.3369 14.8225 77.114 14.9047C76.8933 14.9869 76.6141 15.0778 76.2765 15.1752C75.9389 15.2748 75.5472 15.3657 75.0992 15.4457C74.6512 15.528 74.1469 15.5691 73.5843 15.5691C72.7922 15.5691 72.2165 15.3938 71.8572 15.0389C71.5002 14.6861 71.3205 14.1602 71.3205 13.4634C71.3205 13.2989 71.3292 13.1214 71.3465 12.9266C71.3638 12.7319 71.3898 12.5371 71.4222 12.338H72.5996C73.844 12.338 74.9174 12.2428 75.8155 12.0545C76.7158 11.864 77.456 11.5913 78.0403 11.2343C78.6246 10.8772 79.0553 10.4508 79.3323 9.95523C79.6072 9.46396 79.7457 8.9056 79.7457 8.28448ZM76.3934 9.20859C76.2657 9.42067 76.0601 9.60247 75.7787 9.75829C75.4974 9.91411 75.1273 10.0353 74.6663 10.1262C74.2054 10.2171 73.634 10.2625 72.9523 10.2625H71.8789C71.9893 9.85784 72.1364 9.47694 72.3204 9.11985C72.5043 8.76276 72.7229 8.45329 72.9783 8.18926C73.2337 7.92739 73.5302 7.71747 73.8678 7.56165C74.2054 7.40582 74.5863 7.33008 75.0126 7.33008C75.5234 7.33008 75.9151 7.44478 76.1834 7.67202C76.4518 7.89926 76.586 8.18709 76.586 8.5312C76.586 8.77142 76.5232 8.99866 76.3934 9.20859Z" fill="current"/>
<path d="M98.5697 7.01194C98.4593 6.61157 98.2797 6.26314 98.033 5.96448C97.7863 5.66799 97.4595 5.43426 97.0548 5.26761C96.6501 5.09881 96.148 5.01657 95.5528 5.01657C95.0832 5.01657 94.6266 5.09664 94.1851 5.25463C93.7414 5.41478 93.3302 5.61821 92.9515 5.86926C92.5728 6.11814 92.2308 6.39948 91.9278 6.70896C91.6249 7.01843 91.376 7.33008 91.179 7.63955C91.1444 7.26948 91.0665 6.92537 90.9431 6.60508C90.8198 6.28694 90.6402 6.00776 90.4064 5.77187C90.1727 5.53597 89.874 5.34985 89.5105 5.21567C89.1469 5.08149 88.7205 5.0144 88.2249 5.0144C87.7467 5.0144 87.2857 5.09448 86.8377 5.25246C86.3897 5.41261 85.9764 5.61605 85.5976 5.86709C85.2189 6.11597 84.8791 6.39948 84.5805 6.71328C84.2818 7.02709 84.0437 7.33657 83.8641 7.63739L84.2342 5.73724C84.2515 5.65067 84.245 5.57493 84.2147 5.51217C84.1844 5.44724 84.1238 5.3953 84.0286 5.35634C83.9355 5.31739 83.8057 5.28709 83.639 5.26545C83.4724 5.24381 83.2581 5.23299 82.9941 5.23299C82.7387 5.23299 82.518 5.24381 82.3362 5.26545C82.1523 5.28709 82.0029 5.31739 81.8882 5.35634C81.7735 5.3953 81.687 5.44724 81.6329 5.51217C81.5766 5.57709 81.542 5.65284 81.5246 5.73724L79.2306 17.2766C79.2133 17.3632 79.222 17.439 79.2566 17.5017C79.2912 17.5666 79.3648 17.6207 79.4795 17.664C79.5942 17.7073 79.7522 17.7398 79.9534 17.7614C80.1547 17.7831 80.4123 17.7939 80.7261 17.7939C81.0334 17.7939 81.2931 17.7831 81.5073 17.7614C81.7194 17.7398 81.8926 17.7073 82.0246 17.664C82.1566 17.6207 82.254 17.5666 82.3189 17.5017C82.3838 17.4368 82.4228 17.361 82.4401 17.2766L83.4767 12.0566C83.5871 11.4788 83.7732 10.9356 84.0329 10.4227C84.2926 9.90978 84.5913 9.46179 84.9289 9.07873C85.2665 8.69567 85.6171 8.39269 85.985 8.16761C86.3508 7.9447 86.7057 7.83217 87.0455 7.83217C87.4199 7.83217 87.6861 7.95552 87.8375 8.20008C87.9912 8.44463 88.0669 8.75843 88.0669 9.13717C88.0669 9.33627 88.0561 9.5397 88.0345 9.75179C88.0128 9.96388 87.9761 10.1673 87.9263 10.3664L86.5715 17.2788C86.5542 17.3654 86.565 17.4411 86.604 17.5039C86.6429 17.5666 86.7165 17.6229 86.8269 17.6662C86.9373 17.7095 87.0931 17.7419 87.2943 17.7636C87.4934 17.7852 87.7488 17.796 88.0561 17.796C88.3721 17.796 88.634 17.7852 88.8417 17.7636C89.0495 17.7419 89.2226 17.7095 89.359 17.6662C89.4953 17.6229 89.5949 17.5688 89.6598 17.5039C89.7247 17.439 89.7637 17.3632 89.781 17.2788L90.8176 12.0588C90.928 11.481 91.1141 10.9378 91.3738 10.4249C91.6335 9.91194 91.9322 9.46396 92.2698 9.0809C92.6074 8.69784 92.958 8.39485 93.3259 8.16978C93.6917 7.94687 94.0466 7.83433 94.3864 7.83433C94.7694 7.83433 95.0356 7.95985 95.1849 8.20873C95.3343 8.45761 95.4078 8.78657 95.4078 9.19127C95.4078 9.39037 95.3949 9.58515 95.3689 9.77993C95.3429 9.9747 95.3126 10.1695 95.2802 10.3686L93.9124 17.281C93.8864 17.3675 93.8929 17.4433 93.9319 17.506C93.9708 17.571 94.0444 17.6251 94.1548 17.6684C94.2652 17.7116 94.4231 17.7441 94.6287 17.7657C94.8343 17.7874 95.0897 17.7982 95.397 17.7982C95.713 17.7982 95.9749 17.7874 96.1826 17.7657C96.3904 17.7441 96.5635 17.7116 96.6999 17.6684C96.8362 17.6251 96.9357 17.571 97.0007 17.506C97.0656 17.4411 97.1046 17.3654 97.1219 17.281L98.5286 10.163C98.5978 9.84485 98.6476 9.53105 98.6822 9.2259C98.7169 8.92075 98.7342 8.61776 98.7342 8.31478C98.7342 7.84515 98.6801 7.41232 98.5697 7.01194Z" fill="current"/>
</svg>
