<svg width="210" height="61" viewBox="0 0 210 61" fill="none" xmlns="http://www.w3.org/2000/svg">
<path d="M80.0369 55.0593L74.5341 55.6876C73.9601 55.7513 73.4453 55.3416 73.3816 54.7726L72.0059 42.782C71.9421 42.2084 72.3521 41.6894 72.926 41.6211L78.0827 41.0293C78.725 40.9565 79.3035 41.4163 79.3809 42.0581L80.7657 54.1443C80.8158 54.5996 80.4924 55.0093 80.0369 55.0593ZM133.416 45.0854L109.651 56.7846C109.628 56.7937 109.601 56.812 109.583 56.8211C109.56 56.8302 109.542 56.8438 109.519 56.8575C106.248 58.8377 102.859 58.2641 101.515 57.909C96.4041 56.2793 93.6391 55.0821 91.621 54.2081C88.9744 53.0609 87.6169 52.4737 84.4373 52.5055H84.4328C84.0957 52.5101 83.8132 52.2597 83.7722 51.9274L83.7586 51.8273L82.4239 40.1781C82.3738 39.7547 82.4558 39.3314 82.6562 38.9581C83.9954 36.468 86.5009 33.9643 89.4482 33.6274C94.9191 33.0037 97.6477 36.2905 97.7525 36.427C97.9848 36.7229 98.3174 36.9323 98.6863 37.0097L111.979 39.8867C114.22 40.4467 115.518 42.2129 115.035 44.1249C114.903 44.6393 114.644 45.1218 114.275 45.5042C113.532 46.2781 112.507 46.6149 111.487 46.4556L96.6 43.5513C95.8347 43.4011 95.033 43.7743 94.7369 44.4981C94.3315 45.4814 94.9328 46.5284 95.9213 46.7196L110.895 49.6422C110.908 49.6467 110.926 49.6467 110.94 49.6513C111.537 49.7514 112.134 49.7651 112.717 49.6968C114.079 49.542 115.372 48.9457 116.42 47.9487C117.404 47.011 118.056 45.7591 118.283 44.4208C118.283 44.4117 118.288 44.4071 118.288 44.398C118.333 44.1294 118.52 43.9109 118.775 43.8062L130.05 39.2494C131.726 38.4528 133.995 37.9748 135.284 40.2099C136.659 42.832 134.09 44.662 133.416 45.0854Z" fill="white"/>
<path d="M30.0742 3.4324C30.0377 3.08643 29.9649 2.81785 29.8601 2.61755C29.7508 2.41726 29.5276 2.26703 29.1859 2.17143C28.8443 2.07129 28.3659 2.00755 27.7464 1.98024C27.1269 1.95293 26.2887 1.93927 25.2273 1.93927C24.3117 1.93927 23.5738 1.95293 23.0043 1.98024C22.4395 2.00755 21.9885 2.07129 21.6605 2.17143C21.328 2.27158 21.0729 2.41726 20.8952 2.60845C20.7176 2.79964 20.5354 3.05002 20.3577 3.35502L3.44837 34.5469C3.10672 35.1797 2.87896 35.6896 2.76052 36.0674C2.64208 36.4498 2.6603 36.7411 2.81518 36.9505C2.96551 37.1599 3.27071 37.2919 3.7308 37.3466C4.18633 37.4012 4.82864 37.4285 5.6577 37.4285C6.42755 37.4285 7.06985 37.4103 7.5846 37.3739C8.0948 37.3375 8.50477 37.2737 8.80998 37.1827C9.11519 37.0916 9.34751 36.9596 9.5115 36.7866C9.67093 36.6137 9.8167 36.3997 9.94425 36.1493L13.5521 29.2481H26.6349L27.5779 36.3132C27.5961 36.5681 27.6508 36.7684 27.7373 36.9096C27.8284 37.0552 27.9879 37.1645 28.2202 37.2373C28.4525 37.3102 28.785 37.3602 29.2178 37.3875C29.6505 37.4149 30.2063 37.4285 30.885 37.4285C31.8553 37.4285 32.6161 37.4058 33.1718 37.3602C33.7276 37.3147 34.1284 37.1964 34.3699 37.0052C34.6113 36.814 34.7388 36.5317 34.7479 36.1493C34.7571 35.7669 34.7161 35.2525 34.625 34.6016L30.0742 3.4324ZM16.2351 23.7581L24.0156 8.81315H24.043L26.0336 23.7581H16.2351Z" fill="white"/>
<path d="M63.0228 11.5991C62.9499 11.4625 62.8132 11.3533 62.6037 11.2713C62.3987 11.1894 62.1163 11.1257 61.7564 11.0802C61.3965 11.0346 60.9501 11.0119 60.4126 11.0119C59.3193 11.0119 58.5221 11.0938 58.0301 11.2577C57.5382 11.4216 57.2557 11.6947 57.1829 12.0725L56.7501 14.2212C55.8891 13.024 54.8824 12.1135 53.7345 11.4899C52.5865 10.8662 51.2655 10.5521 49.7759 10.5521C48.1952 10.5521 46.774 10.8343 45.5076 11.3943C44.2412 11.9542 43.1206 12.7099 42.1412 13.6613C41.1618 14.6127 40.3236 15.7052 39.6221 16.9343C38.9206 18.168 38.3421 19.4517 37.8865 20.7946C37.431 22.1375 37.0939 23.485 36.8753 24.8416C36.6612 26.1981 36.5518 27.4682 36.5518 28.6472C36.5518 29.9537 36.6839 31.1646 36.9436 32.289C37.2032 33.4134 37.6314 34.3922 38.2236 35.2252C38.8158 36.0583 39.5811 36.7093 40.5241 37.1827C41.467 37.6516 42.6286 37.8883 44.0089 37.8883C44.9063 37.8883 45.7991 37.7472 46.6874 37.4695C47.5757 37.1872 48.4048 36.814 49.1792 36.3405C49.949 35.8716 50.6369 35.339 51.2382 34.7518C51.8395 34.1646 52.2996 33.5682 52.623 32.9719C52.4271 33.4817 52.2085 34.1327 51.9761 34.9293C51.7438 35.726 51.5069 36.7138 51.2746 37.8928C51.1288 38.6349 50.892 39.2585 50.5594 39.7684C50.2269 40.2737 49.7941 40.6925 49.2521 41.0202C48.7145 41.348 48.0813 41.5802 47.3525 41.7258C46.6236 41.8715 45.8037 41.9443 44.8881 41.9443C43.7583 41.9443 42.8063 41.8669 42.0364 41.7122C41.2666 41.5574 40.6197 41.389 40.0959 41.2114C39.5766 41.0293 39.1575 40.8609 38.8432 40.7107C38.5288 40.5559 38.2646 40.4785 38.0505 40.4785C37.8364 40.4785 37.6451 40.565 37.4857 40.738C37.3262 40.911 37.1759 41.1295 37.0393 41.389C36.9026 41.6484 36.7933 41.9489 36.7022 42.2857C36.6111 42.6226 36.5382 42.9413 36.4744 43.2508C36.4106 43.5604 36.3696 43.8381 36.3514 44.093C36.3332 44.3479 36.3241 44.53 36.3241 44.6347C36.3241 44.9625 36.3787 45.2128 36.4835 45.3949C36.5928 45.577 36.7887 45.7409 37.0757 45.882C37.882 46.2644 38.8933 46.574 40.105 46.8198C41.3167 47.0656 42.6833 47.1885 44.2093 47.1885C46.3275 47.1885 48.1816 46.9791 49.7668 46.5649C51.3566 46.146 52.705 45.5269 53.8165 44.703C54.928 43.879 55.8254 42.8548 56.5087 41.6302C57.192 40.4057 57.6931 38.9717 58.0165 37.3238L63.0501 12.0771C63.1139 11.895 63.0957 11.7357 63.0228 11.5991ZM54.1672 22.9979C53.9167 24.2498 53.5158 25.4243 52.9692 26.5305C52.4226 27.6366 51.7894 28.6017 51.0696 29.4257C50.3499 30.2496 49.58 30.9006 48.7555 31.3831C47.931 31.8611 47.1202 32.1024 46.3321 32.1024C45.831 32.1024 45.4028 32.0068 45.0521 31.8156C44.7013 31.6244 44.4143 31.3513 44.1911 31.0007C43.9679 30.6457 43.7993 30.2178 43.6946 29.7079C43.5852 29.2026 43.5351 28.6381 43.5351 28.0236C43.5351 27.2452 43.5943 26.4212 43.7082 25.5517C43.8267 24.6822 44.0043 23.8128 44.2458 22.9433C44.4872 22.0738 44.7924 21.2407 45.1614 20.4441C45.5304 19.6475 45.9586 18.9464 46.4551 18.3364C46.9471 17.731 47.5028 17.2439 48.1223 16.8843C48.7419 16.5201 49.4297 16.3425 50.1813 16.3425C51.1881 16.3425 52.0718 16.5929 52.8325 17.0891C53.5933 17.5899 54.2902 18.3364 54.9189 19.3288L54.1672 22.9979Z" fill="white"/>
<path d="M77.6408 37.1417C77.8321 37.119 78.028 37.1098 78.2193 37.1098C78.2785 37.1098 78.3377 37.1144 78.397 37.119C78.7523 36.996 79.0939 36.864 79.431 36.7184C80.8158 34.3102 83.1527 31.7655 86.1729 30.4954C86.5692 29.7944 86.9245 29.066 87.2252 28.3104C87.7445 26.9948 88.1271 25.6519 88.3685 24.2771C88.61 22.9023 88.733 21.5594 88.733 20.2575C88.733 18.7006 88.5189 17.3167 88.0861 16.1149C87.6534 14.9086 87.002 13.898 86.1228 13.0695C85.2436 12.2455 84.1458 11.6219 82.8247 11.194C81.5037 10.7706 79.9412 10.5566 78.1282 10.5566C76.2787 10.5566 74.6206 10.8116 73.1492 11.3169C71.6779 11.8222 70.3705 12.5141 69.2317 13.3836C68.0928 14.2531 67.1134 15.2728 66.298 16.4427C65.4826 17.6126 64.813 18.8463 64.2937 20.1528C63.7744 21.4593 63.3918 22.7976 63.1503 24.1724C62.9089 25.5472 62.7859 26.8901 62.7859 28.192C62.7859 29.7489 63 31.1328 63.4328 32.3345C63.8655 33.5409 64.5169 34.556 65.3961 35.38C66.2753 36.204 67.3731 36.8276 68.6941 37.2555C69.6371 37.5605 70.7121 37.7563 71.9102 37.8428C72.1015 37.7972 72.2928 37.7608 72.4887 37.7381L77.6408 37.1417ZM70.7623 31.2193C70.4115 30.8096 70.161 30.3088 70.0106 29.7125C69.8558 29.1161 69.7829 28.4333 69.7829 27.6731C69.7829 26.8582 69.8466 26.0024 69.9696 25.1056C70.0972 24.2088 70.2931 23.3257 70.5618 22.4562C70.8306 21.5867 71.1722 20.7582 71.5868 19.9707C72.0013 19.1831 72.4887 18.4912 73.0536 17.8903C73.6184 17.294 74.2607 16.816 74.9805 16.4654C75.7002 16.1104 76.5065 15.9374 77.4039 15.9374C78.192 15.9374 78.8616 16.0466 79.4082 16.2651C79.9549 16.4837 80.4059 16.7932 80.7521 17.2029C81.1028 17.6126 81.3534 18.1088 81.5037 18.696C81.654 19.2833 81.7315 19.9616 81.7315 20.7218C81.7315 21.5366 81.6677 22.3879 81.5447 23.2756C81.4171 24.1633 81.2213 25.0464 80.9525 25.925C80.6837 26.8036 80.3421 27.6366 79.9276 28.4242C79.513 29.2117 79.0256 29.9082 78.4607 30.5182C77.8959 31.1237 77.2536 31.6062 76.5338 31.9567C75.8141 32.3118 75.0078 32.4848 74.1104 32.4848C73.3223 32.4848 72.6527 32.3755 72.1061 32.157C71.5594 31.9385 71.1085 31.6244 70.7623 31.2193Z" fill="white"/>
<path d="M96.3494 30.7458L97.3972 25.4425C97.6113 24.3181 97.9666 23.2437 98.4586 22.224C98.9505 21.1998 99.5108 20.303 100.139 19.5337C100.768 18.7643 101.429 18.1452 102.116 17.6718C102.809 17.2029 103.456 16.9662 104.066 16.9662C104.371 16.9662 104.64 16.9981 104.872 17.0618C105.105 17.1255 105.319 17.1893 105.519 17.253C105.715 17.3167 105.897 17.3805 106.057 17.4442C106.216 17.5079 106.38 17.5398 106.54 17.5398C106.736 17.5398 106.922 17.4123 107.091 17.1574C107.259 16.9025 107.414 16.5793 107.546 16.1787C107.683 15.7781 107.802 15.3502 107.911 14.8858C108.02 14.4215 108.107 13.9754 108.18 13.5384C108.252 13.1014 108.307 12.7235 108.339 12.3958C108.375 12.068 108.394 11.8449 108.394 11.7175C108.394 11.4808 108.339 11.3078 108.234 11.2031C108.125 11.112 107.979 11.0255 107.788 10.9436C107.601 10.8617 107.382 10.7934 107.141 10.7387C106.9 10.6841 106.64 10.6386 106.362 10.6022C106.084 10.5658 105.811 10.5475 105.542 10.5475C104.877 10.5475 104.203 10.6841 103.524 10.9572C102.841 11.2304 102.18 11.6037 101.547 12.0862C100.909 12.5642 100.308 13.1332 99.7432 13.7842C99.1783 14.4352 98.6818 15.1544 98.249 15.9328L99.0006 12.0725C99.0371 11.8905 99.0234 11.7311 98.9596 11.5991C98.8959 11.4625 98.7683 11.3533 98.5679 11.2714C98.372 11.1894 98.0987 11.1257 97.7479 11.0802C97.3972 11.0346 96.9462 11.0119 96.3904 11.0119C95.8529 11.0119 95.3883 11.0346 95.0056 11.0802C94.6184 11.1257 94.3041 11.1894 94.0627 11.2714C93.8212 11.3533 93.6345 11.4625 93.5115 11.5991C93.3839 11.7357 93.3065 11.895 93.27 12.0725L89.7943 29.667C90.136 29.6442 90.4731 29.6305 90.8056 29.6305C93.0241 29.6305 94.869 30.1085 96.3494 30.7458Z" fill="white"/>
<path d="M112.935 36.0856C114.088 36.3724 115.131 36.864 116.015 37.5104C116.165 37.4649 116.32 37.4239 116.47 37.3739C117.45 37.0279 118.343 36.5954 119.149 36.0674C119.955 35.5439 120.657 34.9566 121.249 34.3148C121.841 33.6729 122.274 33.0584 122.543 32.4802L121.791 36.3678C121.754 36.5681 121.768 36.7366 121.832 36.8686C121.896 37.0051 122.032 37.1144 122.251 37.1963C122.465 37.2783 122.748 37.3375 123.098 37.3739C123.367 37.4012 123.7 37.4194 124.091 37.424L127.772 35.9354L132.505 12.0725C132.541 11.8905 132.523 11.7311 132.45 11.5991C132.377 11.4625 132.241 11.3533 132.031 11.2713C131.826 11.1894 131.544 11.1257 131.184 11.0802C130.824 11.0346 130.378 11.0119 129.84 11.0119C128.747 11.0119 127.95 11.0938 127.458 11.2577C126.966 11.4216 126.683 11.6947 126.61 12.0725L126.178 14.2212C125.317 13.024 124.31 12.1135 123.162 11.4899C122.014 10.8662 120.693 10.5521 119.203 10.5521C117.605 10.5521 116.174 10.8389 114.908 11.4079C113.641 11.9769 112.521 12.7463 111.541 13.7022C110.562 14.6628 109.724 15.7644 109.022 17.0026C108.321 18.2454 107.747 19.5337 107.3 20.8766C106.849 22.2149 106.521 23.5624 106.303 24.9099C106.089 26.2619 105.979 27.5046 105.979 28.6472C105.979 29.8627 106.102 31.019 106.344 32.1251C106.572 33.1585 106.945 34.0781 107.464 34.8975L112.812 36.0537C112.853 36.0628 112.894 36.0765 112.935 36.0856ZM113.131 25.5654C113.25 24.6868 113.427 23.8173 113.669 22.9569C113.91 22.0966 114.215 21.2681 114.584 20.4714C114.953 19.6748 115.377 18.9737 115.864 18.3637C116.347 17.7583 116.903 17.2712 117.532 16.9116C118.16 16.5474 118.853 16.3699 119.604 16.3699C120.611 16.3699 121.495 16.6202 122.256 17.1164C123.016 17.6126 123.713 18.3637 124.342 19.3561L123.59 23.0252C123.34 24.2771 122.939 25.447 122.392 26.5441C121.846 27.6412 121.212 28.6017 120.493 29.4257C119.773 30.2496 119.003 30.9006 118.179 31.3831C117.354 31.8611 116.543 32.1024 115.755 32.1024C115.199 32.1024 114.739 31.9886 114.384 31.761C114.024 31.5334 113.737 31.2329 113.523 30.8505C113.309 30.4681 113.159 30.0357 113.077 29.544C112.995 29.0569 112.954 28.538 112.954 27.9963C112.958 27.2543 113.017 26.444 113.131 25.5654Z" fill="white"/>
<path d="M137.753 36.9551C137.848 36.9005 137.93 36.8413 137.994 36.7775C138.14 36.6319 138.236 36.468 138.29 36.2905L143.889 7.94822H152.639C152.854 7.94822 153.059 7.84807 153.245 7.64778C153.432 7.44748 153.596 7.1971 153.728 6.88755C153.865 6.578 153.979 6.24113 154.079 5.86785C154.179 5.49457 154.257 5.13949 154.32 4.79352C154.384 4.44755 154.43 4.138 154.457 3.85576C154.484 3.57352 154.498 3.37322 154.498 3.24576C154.498 2.88158 154.439 2.6039 154.325 2.4036C154.207 2.2033 154.043 2.10315 153.828 2.10315H129.275C129.061 2.10315 128.861 2.19875 128.683 2.38994C128.505 2.58113 128.341 2.83151 128.2 3.13651C128.054 3.44606 127.936 3.78293 127.836 4.15621C127.736 4.52949 127.658 4.88912 127.594 5.24419C127.531 5.59927 127.485 5.91337 127.458 6.19561C127.43 6.47785 127.417 6.68725 127.417 6.83293C127.417 7.1789 127.467 7.44748 127.562 7.64778C127.663 7.84807 127.845 7.94822 128.114 7.94822H136.782L131.489 34.7427C131.858 34.6926 132.227 34.6653 132.582 34.6653C134.614 34.6562 136.432 35.4802 137.753 36.9551Z" fill="white"/>
<path d="M167.854 17.426C167.854 16.5565 167.672 15.7098 167.303 14.8858C166.934 14.0619 166.374 13.329 165.622 12.6825C164.87 12.0407 163.905 11.5217 162.73 11.1348C161.554 10.7433 160.151 10.5521 158.516 10.5521C156.63 10.5521 154.954 10.8343 153.482 11.3943C152.011 11.9542 150.713 12.7053 149.592 13.634C148.471 14.5672 147.515 15.6506 146.727 16.8797C145.939 18.1134 145.292 19.4016 144.786 20.7537C144.285 22.1057 143.921 23.4713 143.697 24.8552C143.474 26.2391 143.36 27.541 143.36 28.7565C143.36 30.3316 143.574 31.6972 144.007 32.8444C144.44 33.9961 145.082 34.943 145.948 35.685C146.809 36.427 147.879 36.9824 149.164 37.342C150.448 37.7062 151.952 37.8837 153.674 37.8837C154.712 37.8837 155.737 37.8246 156.744 37.7062C157.751 37.5878 158.657 37.4376 159.463 37.2601C160.27 37.078 160.962 36.8777 161.536 36.6637C162.11 36.4452 162.506 36.2313 162.72 36.0128C162.916 35.8307 163.094 35.5712 163.244 35.2252C163.395 34.8793 163.522 34.5151 163.622 34.1236C163.723 33.7321 163.795 33.3406 163.85 32.94C163.905 32.5394 163.932 32.1889 163.932 31.8793C163.932 31.6062 163.887 31.4104 163.795 31.283C163.704 31.1555 163.554 31.0918 163.34 31.0918C163.126 31.0918 162.784 31.1783 162.315 31.3513C161.85 31.5243 161.263 31.7155 160.552 31.9203C159.841 32.1297 159.017 32.3209 158.074 32.4893C157.131 32.6623 156.07 32.7488 154.885 32.7488C153.218 32.7488 152.006 32.3801 151.25 31.6335C150.498 30.8915 150.12 29.7853 150.12 28.3195C150.12 27.9735 150.139 27.6002 150.175 27.1905C150.211 26.7808 150.266 26.3711 150.334 25.9523H152.813C155.432 25.9523 157.691 25.752 159.582 25.356C161.477 24.9554 163.035 24.3818 164.265 23.6307C165.495 22.8796 166.401 21.9828 166.984 20.9403C167.563 19.9069 167.854 18.7325 167.854 17.426ZM160.798 19.3698C160.529 19.8159 160.097 20.1983 159.504 20.526C158.912 20.8538 158.133 21.1087 157.163 21.2999C156.193 21.4911 154.99 21.5867 153.555 21.5867H151.296C151.528 20.7354 151.838 19.9343 152.225 19.1831C152.612 18.432 153.072 17.781 153.61 17.2257C154.147 16.6749 154.771 16.2333 155.482 15.9055C156.193 15.5778 156.994 15.4184 157.892 15.4184C158.967 15.4184 159.791 15.6597 160.356 16.1377C160.921 16.6157 161.203 17.2211 161.203 17.9449C161.203 18.4502 161.071 18.9282 160.798 19.3698Z" fill="white"/>
<path d="M207.476 14.7493C207.244 13.9071 206.866 13.1742 206.347 12.546C205.827 11.9223 205.139 11.4307 204.288 11.0802C203.436 10.7251 202.379 10.5521 201.126 10.5521C200.138 10.5521 199.177 10.7205 198.247 11.0528C197.313 11.3897 196.448 11.8176 195.651 12.3457C194.854 12.8692 194.134 13.461 193.496 14.1119C192.858 14.7629 192.334 15.4184 191.92 16.0694C191.847 15.291 191.683 14.5672 191.423 13.8934C191.164 13.2243 190.786 12.637 190.294 12.1408C189.802 11.6446 189.173 11.2531 188.408 10.9709C187.643 10.6887 186.745 10.5475 185.702 10.5475C184.695 10.5475 183.725 10.716 182.782 11.0483C181.839 11.3852 180.969 11.8131 180.172 12.3411C179.375 12.8646 178.659 13.461 178.031 14.1211C177.402 14.7811 176.901 15.4321 176.523 16.0649L177.302 12.068C177.338 11.8859 177.325 11.7266 177.261 11.5946C177.197 11.458 177.07 11.3487 176.869 11.2668C176.673 11.1849 176.4 11.1211 176.049 11.0756C175.698 11.0301 175.247 11.0073 174.692 11.0073C174.154 11.0073 173.69 11.0301 173.307 11.0756C172.92 11.1211 172.605 11.1849 172.364 11.2668C172.123 11.3487 171.94 11.458 171.826 11.5946C171.708 11.7311 171.635 11.8905 171.599 12.068L166.77 36.3405C166.734 36.5226 166.752 36.6819 166.825 36.814C166.898 36.9505 167.052 37.0643 167.294 37.1554C167.535 37.2464 167.868 37.3147 168.292 37.3602C168.715 37.4058 169.257 37.4285 169.918 37.4285C170.565 37.4285 171.111 37.4058 171.562 37.3602C172.009 37.3147 172.373 37.2464 172.651 37.1554C172.929 37.0643 173.134 36.9505 173.27 36.814C173.407 36.6774 173.489 36.5181 173.526 36.3405L175.708 25.3605C175.94 24.1451 176.332 23.0025 176.878 21.9236C177.425 20.8447 178.054 19.9024 178.764 19.0967C179.475 18.2909 180.213 17.6536 180.987 17.1802C181.757 16.7113 182.504 16.4746 183.219 16.4746C184.007 16.4746 184.568 16.734 184.887 17.2484C185.21 17.7628 185.369 18.4229 185.369 19.2196C185.369 19.6384 185.347 20.0663 185.301 20.5124C185.256 20.9585 185.178 21.3864 185.073 21.8052L182.222 36.3451C182.185 36.5272 182.208 36.6865 182.29 36.8185C182.372 36.9505 182.527 37.0689 182.759 37.1599C182.992 37.251 183.32 37.3193 183.743 37.3648C184.162 37.4103 184.7 37.4331 185.347 37.4331C186.012 37.4331 186.563 37.4103 187 37.3648C187.438 37.3193 187.802 37.251 188.089 37.1599C188.376 37.0689 188.585 36.9551 188.722 36.8185C188.859 36.6819 188.941 36.5226 188.977 36.3451L191.159 25.3651C191.392 24.1496 191.783 23.007 192.33 21.9281C192.877 20.8493 193.505 19.9069 194.216 19.1012C194.926 18.2955 195.664 17.6581 196.439 17.1847C197.209 16.7158 197.956 16.4791 198.671 16.4791C199.477 16.4791 200.038 16.7431 200.352 17.2667C200.666 17.7902 200.821 18.4821 200.821 19.3334C200.821 19.7522 200.794 20.1619 200.739 20.5716C200.684 20.9813 200.621 21.391 200.552 21.8098L197.673 36.3496C197.619 36.5317 197.632 36.6911 197.714 36.8231C197.796 36.9596 197.951 37.0734 198.184 37.1645C198.416 37.2555 198.748 37.3238 199.181 37.3693C199.614 37.4149 200.151 37.4376 200.798 37.4376C201.463 37.4376 202.015 37.4149 202.452 37.3693C202.889 37.3238 203.254 37.2555 203.541 37.1645C203.828 37.0734 204.037 36.9596 204.174 36.8231C204.31 36.6865 204.392 36.5272 204.429 36.3496L207.39 21.3773C207.536 20.7081 207.64 20.0481 207.713 19.4062C207.786 18.7643 207.823 18.127 207.823 17.4897C207.823 16.5019 207.709 15.5914 207.476 14.7493Z" fill="white"/>
<path d="M148.18 45.1627C148.18 45.9548 147.907 46.6149 147.36 47.143C146.822 47.6619 145.998 47.9214 144.886 47.9214H143.055V51.8955H141.811V42.3768H144.886C145.961 42.3768 146.777 42.6363 147.333 43.1552C147.897 43.6742 148.18 44.3433 148.18 45.1627ZM144.886 46.8971C145.579 46.8971 146.089 46.7469 146.417 46.4465C146.745 46.146 146.909 45.7181 146.909 45.1627C146.909 43.9883 146.235 43.401 144.886 43.401H143.055V46.8971H144.886ZM149.261 48.1263C149.261 47.3615 149.416 46.6923 149.725 46.1187C150.035 45.536 150.459 45.0854 150.996 44.7667C151.543 44.448 152.149 44.2887 152.814 44.2887C153.47 44.2887 154.039 44.4298 154.522 44.7121C155.005 44.9943 155.365 45.3494 155.602 45.7773V44.4116H156.859V51.8955H155.602V50.5025C155.356 50.9395 154.987 51.3037 154.495 51.5951C154.012 51.8773 153.447 52.0184 152.8 52.0184C152.135 52.0184 151.534 51.8545 150.996 51.5268C150.459 51.199 150.035 50.7392 149.725 50.1474C149.416 49.5557 149.261 48.8819 149.261 48.1263ZM155.602 48.1399C155.602 47.5754 155.488 47.0838 155.26 46.665C155.032 46.2462 154.723 45.9275 154.331 45.709C153.948 45.4814 153.525 45.3676 153.06 45.3676C152.595 45.3676 152.172 45.4768 151.789 45.6954C151.406 45.9139 151.101 46.2325 150.873 46.6513C150.646 47.0701 150.532 47.5618 150.532 48.1263C150.532 48.6998 150.646 49.2006 150.873 49.6285C151.101 50.0473 151.406 50.3705 151.789 50.5981C152.172 50.8166 152.595 50.9259 153.06 50.9259C153.525 50.9259 153.948 50.8166 154.331 50.5981C154.723 50.3705 155.032 50.0473 155.26 49.6285C155.488 49.2006 155.602 48.7044 155.602 48.1399ZM160.204 45.6271C160.423 45.1992 160.732 44.8668 161.133 44.6301C161.543 44.3934 162.04 44.2751 162.623 44.2751V45.5588H162.295C160.901 45.5588 160.204 46.3145 160.204 47.8258V51.8955H158.96V44.4116H160.204V45.6271ZM163.594 48.1399C163.594 47.366 163.749 46.6923 164.059 46.1187C164.369 45.536 164.797 45.0854 165.343 44.7667C165.899 44.448 166.532 44.2887 167.243 44.2887C168.163 44.2887 168.919 44.5118 169.511 44.9579C170.113 45.404 170.509 46.0231 170.7 46.8152H169.361C169.234 46.36 168.983 46.0004 168.609 45.7363C168.245 45.4723 167.79 45.3403 167.243 45.3403C166.532 45.3403 165.958 45.5861 165.521 46.0777C165.084 46.5603 164.865 47.2477 164.865 48.1399C164.865 49.0412 165.084 49.7377 165.521 50.2294C165.958 50.721 166.532 50.9668 167.243 50.9668C167.79 50.9668 168.245 50.8394 168.609 50.5845C168.974 50.3295 169.224 49.9654 169.361 49.4919H170.7C170.5 50.2567 170.099 50.8712 169.498 51.3356C168.896 51.7908 168.145 52.0184 167.243 52.0184C166.532 52.0184 165.899 51.8591 165.343 51.5404C164.797 51.2218 164.369 50.7711 164.059 50.1884C163.749 49.6057 163.594 48.9229 163.594 48.1399ZM179.193 47.8668C179.193 48.1035 179.179 48.3539 179.152 48.6179H173.166C173.212 49.3554 173.462 49.9335 173.918 50.3523C174.382 50.762 174.943 50.9668 175.599 50.9668C176.136 50.9668 176.583 50.8439 176.938 50.5981C177.302 50.3432 177.558 50.0063 177.703 49.5875H179.043C178.842 50.3068 178.441 50.894 177.84 51.3492C177.239 51.7954 176.492 52.0184 175.599 52.0184C174.888 52.0184 174.25 51.8591 173.685 51.5404C173.13 51.2218 172.692 50.7711 172.374 50.1884C172.055 49.5966 171.895 48.9138 171.895 48.1399C171.895 47.366 172.05 46.6877 172.36 46.1051C172.67 45.5224 173.102 45.0763 173.658 44.7667C174.223 44.448 174.87 44.2887 175.599 44.2887C176.309 44.2887 176.938 44.4435 177.485 44.753C178.031 45.0626 178.45 45.4905 178.742 46.0368C179.043 46.5739 179.193 47.1839 179.193 47.8668ZM177.908 47.6073C177.908 47.1339 177.803 46.7287 177.594 46.3918C177.384 46.0459 177.097 45.7864 176.733 45.6134C176.378 45.4313 175.981 45.3403 175.544 45.3403C174.915 45.3403 174.378 45.5406 173.931 45.9412C173.494 46.3418 173.244 46.8971 173.18 47.6073H177.908ZM181.476 43.1962C181.24 43.1962 181.039 43.1142 180.875 42.9504C180.711 42.7865 180.629 42.5862 180.629 42.3495C180.629 42.1127 180.711 41.9124 180.875 41.7486C181.039 41.5847 181.24 41.5027 181.476 41.5027C181.704 41.5027 181.896 41.5847 182.05 41.7486C182.214 41.9124 182.296 42.1127 182.296 42.3495C182.296 42.5862 182.214 42.7865 182.05 42.9504C181.896 43.1142 181.704 43.1962 181.476 43.1962ZM182.078 44.4116V51.8955H180.834V44.4116H182.078ZM185.441 45.6271C185.66 45.1992 185.969 44.8668 186.37 44.6301C186.78 44.3934 187.277 44.2751 187.86 44.2751V45.5588H187.532C186.138 45.5588 185.441 46.3145 185.441 47.8258V51.8955H184.197V44.4116H185.441V45.6271ZM192.561 52.0184C191.86 52.0184 191.222 51.8591 190.648 51.5404C190.083 51.2218 189.637 50.7711 189.309 50.1884C188.99 49.5966 188.831 48.9138 188.831 48.1399C188.831 47.3751 188.995 46.7014 189.323 46.1187C189.66 45.5269 190.115 45.0763 190.689 44.7667C191.263 44.448 191.905 44.2887 192.616 44.2887C193.327 44.2887 193.969 44.448 194.543 44.7667C195.117 45.0763 195.568 45.5224 195.896 46.1051C196.233 46.6877 196.401 47.366 196.401 48.1399C196.401 48.9138 196.228 49.5966 195.882 50.1884C195.545 50.7711 195.085 51.2218 194.502 51.5404C193.919 51.8591 193.272 52.0184 192.561 52.0184ZM192.561 50.9259C193.008 50.9259 193.427 50.8212 193.819 50.6118C194.21 50.4024 194.525 50.0883 194.762 49.6695C195.008 49.2507 195.131 48.7408 195.131 48.1399C195.131 47.539 195.012 47.0292 194.775 46.6104C194.538 46.1915 194.229 45.882 193.846 45.6817C193.463 45.4723 193.049 45.3676 192.602 45.3676C192.147 45.3676 191.728 45.4723 191.345 45.6817C190.972 45.882 190.671 46.1915 190.443 46.6104C190.215 47.0292 190.101 47.539 190.101 48.1399C190.101 48.7499 190.211 49.2643 190.429 49.6831C190.657 50.1019 190.958 50.416 191.331 50.6254C191.705 50.8257 192.115 50.9259 192.561 50.9259ZM200.688 52.0184C200.114 52.0184 199.599 51.9228 199.144 51.7316C198.688 51.5313 198.328 51.2582 198.064 50.9122C197.8 50.5571 197.654 50.152 197.627 49.6968H198.911C198.948 50.0701 199.121 50.3751 199.431 50.6118C199.75 50.8485 200.164 50.9668 200.674 50.9668C201.148 50.9668 201.522 50.8621 201.795 50.6527C202.068 50.4433 202.205 50.1793 202.205 49.8607C202.205 49.5329 202.059 49.2916 201.768 49.1368C201.476 48.973 201.025 48.8136 200.415 48.6589C199.859 48.5132 199.403 48.3675 199.048 48.2218C198.702 48.0671 198.401 47.844 198.146 47.5527C197.9 47.2522 197.777 46.8607 197.777 46.3782C197.777 45.9958 197.891 45.6453 198.119 45.3266C198.347 45.008 198.67 44.7576 199.089 44.5755C199.508 44.3843 199.987 44.2887 200.524 44.2887C201.353 44.2887 202.023 44.4981 202.533 44.9169C203.043 45.3357 203.316 45.9093 203.353 46.6377H202.109C202.082 46.2462 201.923 45.9321 201.631 45.6954C201.349 45.4586 200.966 45.3403 200.483 45.3403C200.037 45.3403 199.681 45.4359 199.417 45.6271C199.153 45.8183 199.021 46.0686 199.021 46.3782C199.021 46.624 199.098 46.8289 199.253 46.9927C199.417 47.1475 199.618 47.275 199.854 47.3751C200.1 47.4662 200.437 47.5709 200.866 47.6892C201.403 47.8349 201.841 47.9806 202.178 48.1263C202.515 48.2628 202.802 48.4722 203.039 48.7545C203.285 49.0367 203.412 49.4054 203.421 49.8607C203.421 50.2704 203.307 50.6391 203.08 50.9668C202.852 51.2946 202.528 51.5541 202.109 51.7453C201.699 51.9274 201.226 52.0184 200.688 52.0184Z" fill="white"/>
</svg>
