<svg width="461" height="134" viewBox="0 0 461 134" fill="none" xmlns="http://www.w3.org/2000/svg">
<path d="M175.7 120.95L163.62 122.33C162.36 122.47 161.23 121.57 161.09 120.32L158.07 93.98C157.93 92.72 158.83 91.58 160.09 91.43L171.41 90.13C172.82 89.97 174.09 90.98 174.26 92.39L177.3 118.94C177.41 119.94 176.7 120.84 175.7 120.95ZM292.88 99.04L240.71 124.74C240.66 124.76 240.6 124.8 240.56 124.82C240.51 124.84 240.47 124.87 240.42 124.9C233.24 129.25 225.8 127.99 222.85 127.21C211.63 123.63 205.56 121 201.13 119.08C195.32 116.56 192.34 115.27 185.36 115.34H185.35C184.61 115.35 183.99 114.8 183.9 114.07L183.87 113.85L180.94 88.26C180.83 87.33 181.01 86.4 181.45 85.58C184.39 80.11 189.89 74.61 196.36 73.87C208.37 72.5 214.36 79.72 214.59 80.02C215.1 80.67 215.83 81.13 216.64 81.3L245.82 87.62C250.74 88.85 253.59 92.73 252.53 96.93C252.24 98.06 251.67 99.12 250.86 99.96C249.23 101.66 246.98 102.4 244.74 102.05L212.06 95.67C210.38 95.34 208.62 96.16 207.97 97.75C207.08 99.91 208.4 102.21 210.57 102.63L243.44 109.05C243.47 109.06 243.51 109.06 243.54 109.07C244.85 109.29 246.16 109.32 247.44 109.17C250.43 108.83 253.27 107.52 255.57 105.33C257.73 103.27 259.16 100.52 259.66 97.58C259.66 97.56 259.67 97.55 259.67 97.53C259.77 96.94 260.18 96.46 260.74 96.23L285.49 86.22C289.17 84.47 294.15 83.42 296.98 88.33C300 94.09 294.36 98.11 292.88 99.04Z" fill="#F39200"/>
<path d="M66.02 7.54001C65.94 6.78001 65.78 6.19001 65.55 5.75001C65.31 5.31001 64.82 4.98001 64.07 4.77001C63.32 4.55001 62.27 4.41001 60.91 4.35001C59.55 4.29001 57.71 4.26001 55.38 4.26001C53.37 4.26001 51.75 4.29001 50.5 4.35001C49.26 4.41001 48.27 4.55001 47.55 4.77001C46.82 4.99001 46.26 5.31001 45.87 5.73001C45.48 6.15001 45.08 6.70001 44.69 7.37001L7.56999 75.89C6.81999 77.28 6.31999 78.4 6.05999 79.23C5.79999 80.07 5.83999 80.71 6.17999 81.17C6.50999 81.63 7.17999 81.92 8.18999 82.04C9.18999 82.16 10.6 82.22 12.42 82.22C14.11 82.22 15.52 82.18 16.65 82.1C17.77 82.02 18.67 81.88 19.34 81.68C20.01 81.48 20.52 81.19 20.88 80.81C21.23 80.43 21.55 79.96 21.83 79.41L29.75 64.25H58.47L60.54 79.77C60.58 80.33 60.7 80.77 60.89 81.08C61.09 81.4 61.44 81.64 61.95 81.8C62.46 81.96 63.19 82.07 64.14 82.13C65.09 82.19 66.31 82.22 67.8 82.22C69.93 82.22 71.6 82.17 72.82 82.07C74.04 81.97 74.92 81.71 75.45 81.29C75.98 80.87 76.26 80.25 76.28 79.41C76.3 78.57 76.21 77.44 76.01 76.01L66.02 7.54001ZM35.64 52.19L52.72 19.36H52.78L57.15 52.19H35.64Z" fill="#F39200"/>
<path d="M138.35 25.48C138.19 25.18 137.89 24.94 137.43 24.76C136.98 24.58 136.36 24.44 135.57 24.34C134.78 24.24 133.8 24.19 132.62 24.19C130.22 24.19 128.47 24.37 127.39 24.73C126.31 25.09 125.69 25.69 125.53 26.52L124.58 31.24C122.69 28.61 120.48 26.61 117.96 25.24C115.44 23.87 112.54 23.18 109.27 23.18C105.8 23.18 102.68 23.8 99.9 25.03C97.12 26.26 94.66 27.92 92.51 30.01C90.36 32.1 88.52 34.5 86.98 37.2C85.44 39.91 84.17 42.73 83.17 45.68C82.17 48.63 81.43 51.59 80.95 54.57C80.48 57.55 80.24 60.34 80.24 62.93C80.24 65.8 80.53 68.46 81.1 70.93C81.67 73.4 82.61 75.55 83.91 77.38C85.21 79.21 86.89 80.64 88.96 81.68C91.03 82.71 93.58 83.23 96.61 83.23C98.58 83.23 100.54 82.92 102.49 82.31C104.44 81.69 106.26 80.87 107.96 79.83C109.65 78.8 111.16 77.63 112.48 76.34C113.8 75.05 114.81 73.74 115.52 72.43C115.09 73.55 114.61 74.98 114.1 76.73C113.59 78.48 113.07 80.65 112.56 83.24C112.24 84.87 111.72 86.24 110.99 87.36C110.26 88.47 109.31 89.39 108.12 90.11C106.94 90.83 105.55 91.34 103.95 91.66C102.35 91.98 100.55 92.14 98.54 92.14C96.06 92.14 93.97 91.97 92.28 91.63C90.59 91.29 89.17 90.92 88.02 90.53C86.88 90.13 85.96 89.76 85.27 89.43C84.58 89.09 84 88.92 83.53 88.92C83.06 88.92 82.64 89.11 82.29 89.49C81.94 89.87 81.61 90.35 81.31 90.92C81.01 91.49 80.77 92.15 80.57 92.89C80.37 93.63 80.21 94.33 80.07 95.01C79.93 95.69 79.84 96.3 79.8 96.86C79.76 97.42 79.74 97.82 79.74 98.05C79.74 98.77 79.86 99.32 80.09 99.72C80.33 100.12 80.76 100.48 81.39 100.79C83.16 101.63 85.38 102.31 88.04 102.85C90.7 103.39 93.7 103.66 97.05 103.66C101.7 103.66 105.77 103.2 109.25 102.29C112.74 101.37 115.7 100.01 118.14 98.2C120.58 96.39 122.55 94.14 124.05 91.45C125.55 88.76 126.65 85.61 127.36 81.99L138.41 26.53C138.55 26.13 138.51 25.78 138.35 25.48ZM118.91 50.52C118.36 53.27 117.48 55.85 116.28 58.28C115.08 60.71 113.69 62.83 112.11 64.64C110.53 66.45 108.84 67.88 107.03 68.94C105.22 69.99 103.44 70.52 101.71 70.52C100.61 70.52 99.67 70.31 98.9 69.89C98.13 69.47 97.5 68.87 97.01 68.1C96.52 67.32 96.15 66.38 95.92 65.26C95.68 64.15 95.57 62.91 95.57 61.56C95.57 59.85 95.7 58.04 95.95 56.13C96.21 54.22 96.6 52.31 97.13 50.4C97.66 48.49 98.33 46.66 99.14 44.91C99.95 43.16 100.89 41.62 101.98 40.28C103.06 38.95 104.28 37.88 105.64 37.09C107 36.29 108.51 35.9 110.16 35.9C112.37 35.9 114.31 36.45 115.98 37.54C117.65 38.64 119.18 40.28 120.56 42.46L118.91 50.52Z" fill="#F39200"/>
<path d="M170.44 81.59C170.86 81.54 171.29 81.52 171.71 81.52C171.84 81.52 171.97 81.53 172.1 81.54C172.88 81.27 173.63 80.98 174.37 80.66C177.41 75.37 182.54 69.78 189.17 66.99C190.04 65.45 190.82 63.85 191.48 62.19C192.62 59.3 193.46 56.35 193.99 53.33C194.52 50.31 194.79 47.36 194.79 44.5C194.79 41.08 194.32 38.04 193.37 35.4C192.42 32.75 190.99 30.53 189.06 28.71C187.13 26.9 184.72 25.53 181.82 24.59C178.92 23.66 175.49 23.19 171.51 23.19C167.45 23.19 163.81 23.75 160.58 24.86C157.35 25.97 154.48 27.49 151.98 29.4C149.48 31.31 147.33 33.55 145.54 36.12C143.75 38.69 142.28 41.4 141.14 44.27C140 47.14 139.16 50.08 138.63 53.1C138.1 56.12 137.83 59.07 137.83 61.93C137.83 65.35 138.3 68.39 139.25 71.03C140.2 73.68 141.63 75.91 143.56 77.72C145.49 79.53 147.9 80.9 150.8 81.84C152.87 82.51 155.23 82.94 157.86 83.13C158.28 83.03 158.7 82.95 159.13 82.9L170.44 81.59ZM155.34 68.58C154.57 67.68 154.02 66.58 153.69 65.27C153.35 63.96 153.19 62.46 153.19 60.79C153.19 59 153.33 57.12 153.6 55.15C153.88 53.18 154.31 51.24 154.9 49.33C155.49 47.42 156.24 45.6 157.15 43.87C158.06 42.14 159.13 40.62 160.37 39.3C161.61 37.99 163.02 36.94 164.6 36.17C166.18 35.39 167.95 35.01 169.92 35.01C171.65 35.01 173.12 35.25 174.32 35.73C175.52 36.21 176.51 36.89 177.27 37.79C178.04 38.69 178.59 39.78 178.92 41.07C179.25 42.36 179.42 43.85 179.42 45.52C179.42 47.31 179.28 49.18 179.01 51.13C178.73 53.08 178.3 55.02 177.71 56.95C177.12 58.88 176.37 60.71 175.46 62.44C174.55 64.17 173.48 65.7 172.24 67.04C171 68.37 169.59 69.43 168.01 70.2C166.43 70.98 164.66 71.36 162.69 71.36C160.96 71.36 159.49 71.12 158.29 70.64C157.09 70.16 156.1 69.47 155.34 68.58Z" fill="#F39200"/>
<path d="M211.51 67.54L213.81 55.89C214.28 53.42 215.06 51.06 216.14 48.82C217.22 46.57 218.45 44.6 219.83 42.91C221.21 41.22 222.66 39.86 224.17 38.82C225.69 37.79 227.11 37.27 228.45 37.27C229.12 37.27 229.71 37.34 230.22 37.48C230.73 37.62 231.2 37.76 231.64 37.9C232.07 38.04 232.47 38.18 232.82 38.32C233.17 38.46 233.53 38.53 233.88 38.53C234.31 38.53 234.72 38.25 235.09 37.69C235.46 37.13 235.8 36.42 236.09 35.54C236.39 34.66 236.65 33.72 236.89 32.7C237.13 31.68 237.32 30.7 237.48 29.74C237.64 28.78 237.76 27.95 237.83 27.23C237.91 26.51 237.95 26.02 237.95 25.74C237.95 25.22 237.83 24.84 237.6 24.61C237.36 24.41 237.04 24.22 236.62 24.04C236.21 23.86 235.73 23.71 235.2 23.59C234.67 23.47 234.1 23.37 233.49 23.29C232.88 23.21 232.28 23.17 231.69 23.17C230.23 23.17 228.75 23.47 227.26 24.07C225.76 24.67 224.31 25.49 222.92 26.55C221.52 27.6 220.2 28.85 218.96 30.28C217.72 31.71 216.63 33.29 215.68 35L217.33 26.52C217.41 26.12 217.38 25.77 217.24 25.48C217.1 25.18 216.82 24.94 216.38 24.76C215.95 24.58 215.35 24.44 214.58 24.34C213.81 24.24 212.82 24.19 211.6 24.19C210.42 24.19 209.4 24.24 208.56 24.34C207.71 24.44 207.02 24.58 206.49 24.76C205.96 24.94 205.55 25.18 205.28 25.48C205 25.78 204.83 26.13 204.75 26.52L197.12 65.17C197.87 65.12 198.61 65.09 199.34 65.09C204.21 65.09 208.26 66.14 211.51 67.54Z" fill="#F39200"/>
<path d="M247.92 79.27C250.45 79.9 252.74 80.98 254.68 82.4C255.01 82.3 255.35 82.21 255.68 82.1C257.83 81.34 259.79 80.39 261.56 79.23C263.33 78.08 264.87 76.79 266.17 75.38C267.47 73.97 268.42 72.62 269.01 71.35L267.36 79.89C267.28 80.33 267.31 80.7 267.45 80.99C267.59 81.29 267.89 81.53 268.37 81.71C268.84 81.89 269.46 82.02 270.23 82.1C270.82 82.16 271.55 82.2 272.41 82.21L280.49 78.94L290.88 26.52C290.96 26.12 290.92 25.77 290.76 25.48C290.6 25.18 290.3 24.94 289.84 24.76C289.39 24.58 288.77 24.44 287.98 24.34C287.19 24.24 286.21 24.19 285.03 24.19C282.63 24.19 280.88 24.37 279.8 24.73C278.72 25.09 278.1 25.69 277.94 26.52L276.99 31.24C275.1 28.61 272.89 26.61 270.37 25.24C267.85 23.87 264.95 23.18 261.68 23.18C258.17 23.18 255.03 23.81 252.25 25.06C249.47 26.31 247.01 28 244.86 30.1C242.71 32.21 240.87 34.63 239.33 37.35C237.79 40.08 236.53 42.91 235.55 45.86C234.56 48.8 233.84 51.76 233.36 54.72C232.89 57.69 232.65 60.42 232.65 62.93C232.65 65.6 232.92 68.14 233.45 70.57C233.95 72.84 234.77 74.86 235.91 76.66L247.65 79.2C247.74 79.22 247.83 79.25 247.92 79.27ZM248.35 56.16C248.61 54.23 249 52.32 249.53 50.43C250.06 48.54 250.73 46.72 251.54 44.97C252.35 43.22 253.28 41.68 254.35 40.34C255.41 39.01 256.63 37.94 258.01 37.15C259.39 36.35 260.91 35.96 262.56 35.96C264.77 35.96 266.71 36.51 268.38 37.6C270.05 38.69 271.58 40.34 272.96 42.52L271.31 50.58C270.76 53.33 269.88 55.9 268.68 58.31C267.48 60.72 266.09 62.83 264.51 64.64C262.93 66.45 261.24 67.88 259.43 68.94C257.62 69.99 255.84 70.52 254.11 70.52C252.89 70.52 251.88 70.27 251.1 69.77C250.31 69.27 249.68 68.61 249.21 67.77C248.74 66.93 248.41 65.98 248.23 64.9C248.05 63.83 247.96 62.69 247.96 61.5C247.97 59.87 248.1 58.09 248.35 56.16Z" fill="#F39200"/>
<path d="M302.4 81.18C302.61 81.06 302.79 80.93 302.93 80.79C303.25 80.47 303.46 80.11 303.58 79.72L315.87 17.46H335.08C335.55 17.46 336 17.24 336.41 16.8C336.82 16.36 337.18 15.81 337.47 15.13C337.77 14.45 338.02 13.71 338.24 12.89C338.46 12.07 338.63 11.29 338.77 10.53C338.91 9.76999 339.01 9.09 339.07 8.47C339.13 7.85 339.16 7.41 339.16 7.13C339.16 6.33 339.03 5.72 338.78 5.28C338.52 4.84 338.16 4.62 337.69 4.62H283.79C283.32 4.62 282.88 4.83 282.49 5.25C282.1 5.67 281.74 6.22 281.43 6.89C281.11 7.57 280.85 8.31 280.63 9.13C280.41 9.95 280.24 10.74 280.1 11.52C279.96 12.3 279.86 12.99 279.8 13.61C279.74 14.23 279.71 14.69 279.71 15.01C279.71 15.77 279.82 16.36 280.03 16.8C280.25 17.24 280.65 17.46 281.24 17.46H300.27L288.65 76.32C289.46 76.21 290.27 76.15 291.05 76.15C295.51 76.13 299.5 77.94 302.4 81.18Z" fill="#F39200"/>
<path d="M368.48 38.28C368.48 36.37 368.08 34.51 367.27 32.7C366.46 30.89 365.23 29.28 363.58 27.86C361.93 26.45 359.81 25.31 357.23 24.46C354.65 23.6 351.57 23.18 347.98 23.18C343.84 23.18 340.16 23.8 336.93 25.03C333.7 26.26 330.85 27.91 328.39 29.95C325.93 32 323.83 34.38 322.1 37.08C320.37 39.79 318.95 42.62 317.84 45.59C316.74 48.56 315.94 51.56 315.45 54.6C314.96 57.64 314.71 60.5 314.71 63.17C314.71 66.63 315.18 69.63 316.13 72.15C317.08 74.68 318.49 76.76 320.39 78.39C322.28 80.02 324.63 81.24 327.45 82.03C330.27 82.83 333.57 83.22 337.35 83.22C339.63 83.22 341.88 83.09 344.09 82.83C346.3 82.57 348.29 82.24 350.06 81.85C351.83 81.45 353.35 81.01 354.61 80.54C355.87 80.06 356.74 79.59 357.21 79.11C357.64 78.71 358.03 78.14 358.36 77.38C358.69 76.62 358.97 75.82 359.19 74.96C359.41 74.1 359.57 73.24 359.69 72.36C359.81 71.48 359.87 70.71 359.87 70.03C359.87 69.43 359.77 69 359.57 68.72C359.37 68.44 359.04 68.3 358.57 68.3C358.1 68.3 357.35 68.49 356.32 68.87C355.3 69.25 354.01 69.67 352.45 70.12C350.89 70.58 349.08 71 347.01 71.37C344.94 71.75 342.61 71.94 340.01 71.94C336.35 71.94 333.69 71.13 332.03 69.49C330.38 67.86 329.55 65.43 329.55 62.21C329.55 61.45 329.59 60.63 329.67 59.73C329.75 58.83 329.87 57.93 330.02 57.01H335.46C341.21 57.01 346.17 56.57 350.32 55.7C354.48 54.82 357.9 53.56 360.6 51.91C363.3 50.26 365.29 48.29 366.57 46C367.84 43.73 368.48 41.15 368.48 38.28ZM352.99 42.55C352.4 43.53 351.45 44.37 350.15 45.09C348.85 45.81 347.14 46.37 345.01 46.79C342.88 47.21 340.24 47.42 337.09 47.42H332.13C332.64 45.55 333.32 43.79 334.17 42.14C335.02 40.49 336.03 39.06 337.21 37.84C338.39 36.63 339.76 35.66 341.32 34.94C342.88 34.22 344.64 33.87 346.61 33.87C348.97 33.87 350.78 34.4 352.02 35.45C353.26 36.5 353.88 37.83 353.88 39.42C353.88 40.53 353.59 41.58 352.99 42.55Z" fill="#F39200"/>
<path d="M455.46 32.4C454.95 30.55 454.12 28.94 452.98 27.56C451.84 26.19 450.33 25.11 448.46 24.34C446.59 23.56 444.27 23.18 441.52 23.18C439.35 23.18 437.24 23.55 435.2 24.28C433.15 25.02 431.25 25.96 429.5 27.12C427.75 28.27 426.17 29.57 424.77 31C423.37 32.43 422.22 33.87 421.31 35.3C421.15 33.59 420.79 32 420.22 30.52C419.65 29.05 418.82 27.76 417.74 26.67C416.66 25.58 415.28 24.72 413.6 24.1C411.92 23.48 409.95 23.17 407.66 23.17C405.45 23.17 403.32 23.54 401.25 24.27C399.18 25.01 397.27 25.95 395.52 27.11C393.77 28.26 392.2 29.57 390.82 31.02C389.44 32.47 388.34 33.9 387.51 35.29L389.22 26.51C389.3 26.11 389.27 25.76 389.13 25.47C388.99 25.17 388.71 24.93 388.27 24.75C387.84 24.57 387.24 24.43 386.47 24.33C385.7 24.23 384.71 24.18 383.49 24.18C382.31 24.18 381.29 24.23 380.45 24.33C379.6 24.43 378.91 24.57 378.38 24.75C377.85 24.93 377.45 25.17 377.2 25.47C376.94 25.77 376.78 26.12 376.7 26.51L366.1 79.83C366.02 80.23 366.06 80.58 366.22 80.87C366.38 81.17 366.72 81.42 367.25 81.62C367.78 81.82 368.51 81.97 369.44 82.07C370.37 82.17 371.56 82.22 373.01 82.22C374.43 82.22 375.63 82.17 376.62 82.07C377.6 81.97 378.4 81.82 379.01 81.62C379.62 81.42 380.07 81.17 380.37 80.87C380.67 80.57 380.85 80.22 380.93 79.83L385.72 55.71C386.23 53.04 387.09 50.53 388.29 48.16C389.49 45.79 390.87 43.72 392.43 41.95C393.99 40.18 395.61 38.78 397.31 37.74C399 36.71 400.64 36.19 402.21 36.19C403.94 36.19 405.17 36.76 405.87 37.89C406.58 39.02 406.93 40.47 406.93 42.22C406.93 43.14 406.88 44.08 406.78 45.06C406.68 46.04 406.51 46.98 406.28 47.9L400.02 79.84C399.94 80.24 399.99 80.59 400.17 80.88C400.35 81.17 400.69 81.43 401.2 81.63C401.71 81.83 402.43 81.98 403.36 82.08C404.28 82.18 405.46 82.23 406.88 82.23C408.34 82.23 409.55 82.18 410.51 82.08C411.47 81.98 412.27 81.83 412.9 81.63C413.53 81.43 413.99 81.18 414.29 80.88C414.59 80.58 414.77 80.23 414.85 79.84L419.64 55.72C420.15 53.05 421.01 50.54 422.21 48.17C423.41 45.8 424.79 43.73 426.35 41.96C427.91 40.19 429.53 38.79 431.23 37.75C432.92 36.72 434.56 36.2 436.13 36.2C437.9 36.2 439.13 36.78 439.82 37.93C440.51 39.08 440.85 40.6 440.85 42.47C440.85 43.39 440.79 44.29 440.67 45.19C440.55 46.09 440.41 46.99 440.26 47.91L433.94 79.85C433.82 80.25 433.85 80.6 434.03 80.89C434.21 81.19 434.55 81.44 435.06 81.64C435.57 81.84 436.3 81.99 437.25 82.09C438.2 82.19 439.38 82.24 440.8 82.24C442.26 82.24 443.47 82.19 444.43 82.09C445.39 81.99 446.19 81.84 446.82 81.64C447.45 81.44 447.91 81.19 448.21 80.89C448.51 80.59 448.69 80.24 448.77 79.85L455.27 46.96C455.59 45.49 455.82 44.04 455.98 42.63C456.14 41.22 456.22 39.82 456.22 38.42C456.22 36.25 455.97 34.25 455.46 32.4Z" fill="#F39200"/>
<path d="M325.29 99.21C325.29 100.95 324.69 102.4 323.49 103.56C322.31 104.7 320.5 105.27 318.06 105.27H314.04V114H311.31V93.09H318.06C320.42 93.09 322.21 93.66 323.43 94.8C324.67 95.94 325.29 97.41 325.29 99.21ZM318.06 103.02C319.58 103.02 320.7 102.69 321.42 102.03C322.14 101.37 322.5 100.43 322.5 99.21C322.5 96.63 321.02 95.34 318.06 95.34H314.04V103.02H318.06ZM327.663 105.72C327.663 104.04 328.003 102.57 328.683 101.31C329.363 100.03 330.293 99.04 331.473 98.34C332.673 97.64 334.003 97.29 335.463 97.29C336.903 97.29 338.153 97.6 339.213 98.22C340.273 98.84 341.063 99.62 341.583 100.56V97.56H344.343V114H341.583V110.94C341.043 111.9 340.233 112.7 339.153 113.34C338.093 113.96 336.853 114.27 335.433 114.27C333.973 114.27 332.653 113.91 331.473 113.19C330.293 112.47 329.363 111.46 328.683 110.16C328.003 108.86 327.663 107.38 327.663 105.72ZM341.583 105.75C341.583 104.51 341.333 103.43 340.833 102.51C340.333 101.59 339.653 100.89 338.793 100.41C337.953 99.91 337.023 99.66 336.003 99.66C334.983 99.66 334.053 99.9 333.213 100.38C332.373 100.86 331.703 101.56 331.203 102.48C330.703 103.4 330.453 104.48 330.453 105.72C330.453 106.98 330.703 108.08 331.203 109.02C331.703 109.94 332.373 110.65 333.213 111.15C334.053 111.63 334.983 111.87 336.003 111.87C337.023 111.87 337.953 111.63 338.793 111.15C339.653 110.65 340.333 109.94 340.833 109.02C341.333 108.08 341.583 106.99 341.583 105.75ZM351.686 100.23C352.166 99.29 352.846 98.56 353.726 98.04C354.626 97.52 355.716 97.26 356.996 97.26V100.08H356.276C353.216 100.08 351.686 101.74 351.686 105.06V114H348.956V97.56H351.686V100.23ZM359.128 105.75C359.128 104.05 359.468 102.57 360.148 101.31C360.828 100.03 361.768 99.04 362.968 98.34C364.188 97.64 365.578 97.29 367.138 97.29C369.158 97.29 370.818 97.78 372.118 98.76C373.438 99.74 374.308 101.1 374.728 102.84H371.788C371.508 101.84 370.958 101.05 370.138 100.47C369.338 99.89 368.338 99.6 367.138 99.6C365.578 99.6 364.318 100.14 363.358 101.22C362.398 102.28 361.918 103.79 361.918 105.75C361.918 107.73 362.398 109.26 363.358 110.34C364.318 111.42 365.578 111.96 367.138 111.96C368.338 111.96 369.338 111.68 370.138 111.12C370.938 110.56 371.488 109.76 371.788 108.72H374.728C374.288 110.4 373.408 111.75 372.088 112.77C370.768 113.77 369.118 114.27 367.138 114.27C365.578 114.27 364.188 113.92 362.968 113.22C361.768 112.52 360.828 111.53 360.148 110.25C359.468 108.97 359.128 107.47 359.128 105.75ZM393.371 105.15C393.371 105.67 393.341 106.22 393.281 106.8H380.141C380.241 108.42 380.791 109.69 381.791 110.61C382.811 111.51 384.041 111.96 385.481 111.96C386.661 111.96 387.641 111.69 388.421 111.15C389.221 110.59 389.781 109.85 390.101 108.93H393.041C392.601 110.51 391.721 111.8 390.401 112.8C389.081 113.78 387.441 114.27 385.481 114.27C383.921 114.27 382.521 113.92 381.281 113.22C380.061 112.52 379.101 111.53 378.401 110.25C377.701 108.95 377.351 107.45 377.351 105.75C377.351 104.05 377.691 102.56 378.371 101.28C379.051 100 380.001 99.02 381.221 98.34C382.461 97.64 383.881 97.29 385.481 97.29C387.041 97.29 388.421 97.63 389.621 98.31C390.821 98.99 391.741 99.93 392.381 101.13C393.041 102.31 393.371 103.65 393.371 105.15ZM390.551 104.58C390.551 103.54 390.321 102.65 389.861 101.91C389.401 101.15 388.771 100.58 387.971 100.2C387.191 99.8 386.321 99.6 385.361 99.6C383.981 99.6 382.801 100.04 381.821 100.92C380.861 101.8 380.311 103.02 380.171 104.58H390.551ZM398.384 94.89C397.864 94.89 397.424 94.71 397.064 94.35C396.704 93.99 396.524 93.55 396.524 93.03C396.524 92.51 396.704 92.07 397.064 91.71C397.424 91.35 397.864 91.17 398.384 91.17C398.884 91.17 399.304 91.35 399.644 91.71C400.004 92.07 400.184 92.51 400.184 93.03C400.184 93.55 400.004 93.99 399.644 94.35C399.304 94.71 398.884 94.89 398.384 94.89ZM399.704 97.56V114H396.974V97.56H399.704ZM407.087 100.23C407.567 99.29 408.247 98.56 409.127 98.04C410.027 97.52 411.117 97.26 412.397 97.26V100.08H411.677C408.617 100.08 407.087 101.74 407.087 105.06V114H404.357V97.56H407.087V100.23ZM422.718 114.27C421.178 114.27 419.778 113.92 418.518 113.22C417.278 112.52 416.298 111.53 415.578 110.25C414.878 108.95 414.528 107.45 414.528 105.75C414.528 104.07 414.888 102.59 415.608 101.31C416.348 100.01 417.348 99.02 418.608 98.34C419.868 97.64 421.278 97.29 422.838 97.29C424.398 97.29 425.808 97.64 427.068 98.34C428.328 99.02 429.318 100 430.038 101.28C430.778 102.56 431.148 104.05 431.148 105.75C431.148 107.45 430.768 108.95 430.008 110.25C429.268 111.53 428.258 112.52 426.978 113.22C425.698 113.92 424.278 114.27 422.718 114.27ZM422.718 111.87C423.698 111.87 424.618 111.64 425.478 111.18C426.338 110.72 427.028 110.03 427.548 109.11C428.088 108.19 428.358 107.07 428.358 105.75C428.358 104.43 428.098 103.31 427.578 102.39C427.058 101.47 426.378 100.79 425.538 100.35C424.698 99.89 423.788 99.66 422.808 99.66C421.808 99.66 420.888 99.89 420.048 100.35C419.228 100.79 418.568 101.47 418.068 102.39C417.568 103.31 417.318 104.43 417.318 105.75C417.318 107.09 417.558 108.22 418.038 109.14C418.538 110.06 419.198 110.75 420.018 111.21C420.838 111.65 421.738 111.87 422.718 111.87ZM440.558 114.27C439.298 114.27 438.168 114.06 437.168 113.64C436.168 113.2 435.378 112.6 434.798 111.84C434.218 111.06 433.898 110.17 433.838 109.17H436.658C436.738 109.99 437.118 110.66 437.798 111.18C438.498 111.7 439.408 111.96 440.528 111.96C441.568 111.96 442.388 111.73 442.988 111.27C443.588 110.81 443.888 110.23 443.888 109.53C443.888 108.81 443.568 108.28 442.928 107.94C442.288 107.58 441.298 107.23 439.958 106.89C438.738 106.57 437.738 106.25 436.958 105.93C436.198 105.59 435.538 105.1 434.978 104.46C434.438 103.8 434.168 102.94 434.168 101.88C434.168 101.04 434.418 100.27 434.918 99.57C435.418 98.87 436.128 98.32 437.048 97.92C437.968 97.5 439.018 97.29 440.198 97.29C442.018 97.29 443.488 97.75 444.608 98.67C445.728 99.59 446.328 100.85 446.408 102.45H443.678C443.618 101.59 443.268 100.9 442.628 100.38C442.008 99.86 441.168 99.6 440.108 99.6C439.128 99.6 438.348 99.81 437.768 100.23C437.188 100.65 436.898 101.2 436.898 101.88C436.898 102.42 437.068 102.87 437.408 103.23C437.768 103.57 438.208 103.85 438.728 104.07C439.268 104.27 440.008 104.5 440.948 104.76C442.128 105.08 443.088 105.4 443.828 105.72C444.568 106.02 445.198 106.48 445.718 107.1C446.258 107.72 446.538 108.53 446.558 109.53C446.558 110.43 446.308 111.24 445.808 111.96C445.308 112.68 444.598 113.25 443.678 113.67C442.778 114.07 441.738 114.27 440.558 114.27Z" fill="#F39200"/>
</svg>
